<svg xmlns="http://www.w3.org/2000/svg" data-name="Слой 1" viewBox="0 0 100 125" x="0px" y="0px"><title>Безымянный-1</title><g><path d="M48.29173,20.91309c.44045,2.67407.81828,4.968,1.25786,7.63686a29.75307,29.75307,0,0,0,3.91278-.37779c2.38512-.53346,4.71271-1.32728,7.10142-1.83905.66415-.14232,1.45907.32571,2.194.51374-.51414.48731-.94651,1.22009-1.55542,1.4231a42.59057,42.59057,0,0,1-15.1772,2.408,20.86177,20.86177,0,0,1-11.07629-3.71148,2.81986,2.81986,0,0,1-.51721-.49108,1.71988,1.71988,0,0,1-.175-.42192c.86026-1.19467,1.8261-.49218,2.778-.1154a46.95591,46.95591,0,0,0,5.50622,2.10209c2.1421.54764,2.49613.11136,2.15817-2.0335-.15791-1.00211-.45371-1.98313-.69919-2.9707a2.10178,2.10178,0,0,0-2.20542-1.71675,16.69777,16.69777,0,0,0-8.17976,1.66586c-1.21465.59569-2.44545,1.79479-4.57394.26q.91125-.52011,1.8225-1.04022a19.5657,19.5657,0,0,1,8.76662-2.94536c3.64447-.18813,3.3542-.397,4.83215-3.62009A43.17637,43.17637,0,0,1,49.38579,8.1986,27.03146,27.03146,0,0,1,52.78013,4.7669c.88679-.82751,2.099-1.13929,2.86044-.14869a2.95022,2.95022,0,0,1,.25154,2.67767A17.62547,17.62547,0,0,1,52.64,11.07318a11.939,11.939,0,0,0-3.691,7.01548,9.58451,9.58451,0,0,0-.00957,1.43118c4.67257-.53271,8.678,1.549,12.91179,2.71,1.42367.39039,3.072-.10087,4.61592-.07659,7.75187.12182,15.0069,1.70433,20.62774,7.56383a16.18131,16.18131,0,0,1,2.4769,3.90158,33.47619,33.47619,0,0,1,3.61715,18.76,57.39218,57.39218,0,0,1-3.11865,15.24337c-2.93307,7.71726-6.35779,15.17206-13.49812,20.07157a43.38827,43.38827,0,0,1-12.24457,6.25692c-1.14482.33576-2.26435.75733-3.39644,1.13692-4.80036,1.60938-9.57586.76787-14.37288-.07461-3.17591-.55779-6.3808-.95626-9.57884-1.38046a29.929,29.929,0,0,1-10.19653-3.69123c-4.50508-2.4015-8.054-5.78138-11.4774-9.37706A25.717,25.717,0,0,1,8.50666,67.54893,80.91649,80.91649,0,0,1,6.94228,44.17515c.52046-5.42775,2.03161-10.59663,5.905-14.45175,2.29913-2.28824,5.55312-3.65369,8.46933-5.26865a12.9111,12.9111,0,0,1,4.2301-1.42657c.71509-.1093,1.55884.62326,2.34436.97484a7.64709,7.64709,0,0,1-1.97233,1.10934c-4.79315,1.02586-9.26319,2.8239-12.29393,6.77242a24.38788,24.38788,0,0,0-4.743,13.48973,78.54727,78.54727,0,0,0,.41718,16.10944c1.07008,7.83658,3.75794,14.71927,10.052,20.00759a65.57961,65.57961,0,0,0,10.197,7.57349c4.09212,2.26826,8.61029,2.83369,13.1209,3.43065,3.11373.41208,6.235.427,9.37842,1.052,2.95178.58686,6.32407-.08449,9.33969-.86514A43.9325,43.9325,0,0,0,75.82337,85.6054a23.05284,23.05284,0,0,0,8.21682-10.00235c1.84358-4.47166,3.65114-8.96041,5.35771-13.48574,1.72782-4.58158,1.36369-9.43433,1.628-14.20465.26085-4.70673-1.32794-8.91356-3.338-13.02592-2.8196-5.76882-7.84365-8.5485-13.77934-9.91386a63.14758,63.14758,0,0,0-7.30061-.85715c-.29677-.03236-.66318-.13762-.88784-.01256-3.43263,1.91081-6.27313-.39109-9.33231-1.23972C53.881,22.16813,51.32861,21.63726,48.29173,20.91309Z"/><path d="M18.80551,79.4219A93.68635,93.68635,0,0,1,14.374,70.982c-2.23379-5.47935-2.67758-11.37723-3.2698-17.1937-.46425-4.55984.35623-9.05636,1.40022-13.49426a1.91994,1.91994,0,0,1,.54725-1.10293,5.32017,5.32017,0,0,1,1.50175-.48028c.06886.48819.37168,1.12159.17205,1.44313-3.97083,6.39657-2.75908,13.27394-2.04558,20.14746a39.84049,39.84049,0,0,0,4.424,14.10224c.79439,1.55454,1.70279,3.05071,2.5591,4.57359Q19.23423,79.19954,18.80551,79.4219Z"/><path d="M71.06622,81.56681c-1.856,2.46258-3.67635,4.95383-5.60617,7.35713-.29422.36637-1.09582.32535-1.66274.47277.11409-.534.05832-1.21408.37081-1.5775,1.6291-1.89438,3.327-3.73212,5.05971-5.533a7.53926,7.53926,0,0,1,1.615-.99912Z"/><path d="M64.62508,58.93776q-.52275,5.53883-1.04549,11.07761l-.56253-.02587c.04734-.932.14044-1.8643.13306-2.79584-.01888-2.38011-.12981-4.76066-.091-7.13914.00834-.51317.49166-1.01857.75619-1.52757Z"/><path d="M16.30692,54.97435c-.11374-.165-.33251-.33506-.33708-.51076-.08414-3.19571-.15835-6.392-.18637-9.58855a2.17449,2.17449,0,0,1,.44159-1.14816.8251.8251,0,0,1,.7359-.271.78393.78393,0,0,1,.38091.67113c-1.24846,3.49986-1.023,7.10006-.7936,10.70382C16.54985,54.8553,16.4593,54.88569,16.30692,54.97435Z"/><path d="M73.75838,52.91472c-.48393-1.65238-1.01168-3.29426-1.409-4.96718-.06771-.28473.42368-.70226.65677-1.05845.35052.25786.97181.48331,1.0072.77894.205,1.71337.272,3.44317.38582,5.16743Z"/><path d="M53.80963,71.39829l.79387-7.98009.47277.04527c.72984,2.75575-.035,5.37953-.74609,8.008Z"/><path d="M50.79682,89.66423l1.35754-1.74481a6.14642,6.14642,0,0,1,1.01616,1.95995c.0628.54677-.47954,1.163-.75338,1.74846C51.92847,91.03561,51.43971,90.44339,50.79682,89.66423Z"/><path d="M79.7083,75.52546c.48577-1.448.84059-2.5057,1.24187-3.70182C81.85567,73.925,81.65841,74.73756,79.7083,75.52546Z"/><path d="M44.12531,88.24508a9.73247,9.73247,0,0,1,1.02187-.91533,6.00615,6.00615,0,0,1,1.23774,1.3077c.06464.099-.56824.82452-.61532.79773A16.2951,16.2951,0,0,1,44.12531,88.24508Z"/><path d="M52.80279,79.59158l.46926-4.3877.68426.08313-.57913,4.42907Z"/></g><text x="0" y="115" fill="#000000" font-size="5px" font-weight="bold" font-family="'Helvetica Neue', Helvetica, Arial-Unicode, Arial, Sans-serif">Created by Roman</text><text x="0" y="120" fill="#000000" font-size="5px" font-weight="bold" font-family="'Helvetica Neue', Helvetica, Arial-Unicode, Arial, Sans-serif">from the Noun Project</text></svg>